<svg xmlns="http://www.w3.org/2000/svg" xmlns:xlink="http://www.w3.org/1999/xlink" version="1.1" width="256" height="256" viewBox="0 0 256 256" xml:space="preserve">

<defs>
</defs>
<g style="stroke: none; stroke-width: 0; stroke-dasharray: none; stroke-linecap: butt; stroke-linejoin: miter; stroke-miterlimit: 10; fill: none; fill-rule: nonzero; opacity: 1;" transform="translate(1.4065934065934016 1.4065934065934016) scale(2.81 2.81)" >
	<path d="M 2.002 90 c -0.53 0 -1.039 -0.21 -1.414 -0.586 c -0.387 -0.387 -0.599 -0.916 -0.585 -1.464 l 0.258 -10.38 c 0.013 -0.513 0.222 -1.002 0.585 -1.364 l 8.785 -8.785 c 0.375 -0.375 0.884 -0.586 1.414 -0.586 c 0.002 0 0.004 0 0.006 0 l 6.058 0.018 l -0.018 -6.058 c -0.001 -0.532 0.209 -1.044 0.586 -1.42 s 0.919 -0.598 1.42 -0.586 l 6.058 0.018 l -0.018 -6.059 c -0.001 -0.532 0.209 -1.044 0.586 -1.42 l 12.342 -12.342 l -6.542 -6.542 c -2.898 -2.898 -2.898 -7.614 0 -10.512 L 51.278 2.177 C 52.683 0.773 54.549 0 56.534 0 c 1.986 0 3.853 0.773 5.256 2.177 l 26.035 26.034 c 2.897 2.898 2.897 7.614 0 10.512 L 68.069 58.479 c -2.898 2.899 -7.614 2.897 -10.511 0 L 45.955 46.875 L 35.562 57.269 c -0.78 0.781 -2.047 0.781 -2.828 0 c -0.781 -0.781 -0.781 -2.047 0 -2.828 l 11.807 -11.808 c 0.75 -0.75 2.078 -0.75 2.828 0 L 60.387 55.65 c 1.296 1.297 3.558 1.298 4.854 0 l 19.756 -19.755 c 1.338 -1.338 1.338 -3.517 0 -4.855 L 58.962 5.005 c -1.297 -1.297 -3.559 -1.296 -4.855 0 L 34.352 24.76 c -1.338 1.338 -1.338 3.517 0 4.855 l 7.956 7.956 c 0.375 0.375 0.586 0.884 0.586 1.414 s -0.211 1.039 -0.586 1.414 L 29.14 53.568 l 0.021 7.238 c 0.001 0.532 -0.209 1.044 -0.586 1.42 c -0.375 0.375 -0.884 0.586 -1.414 0.586 c -0.002 0 -0.004 0 -0.006 0 l -6.058 -0.018 l 0.018 6.058 c 0.001 0.532 -0.209 1.044 -0.586 1.42 c -0.376 0.377 -0.868 0.613 -1.42 0.586 l -7.238 -0.021 L 4.24 78.469 l -0.186 7.479 l 7.479 -0.186 l 32.59 -32.59 c 0.78 -0.782 2.048 -0.78 2.829 0 l 3.516 3.516 c 0.781 0.78 0.781 2.047 0 2.828 s -2.047 0.781 -2.828 0 l -2.102 -2.102 L 13.796 89.156 c -0.363 0.363 -0.851 0.572 -1.364 0.585 l -10.38 0.258 C 2.035 90 2.018 90 2.002 90 z" style="stroke: none; stroke-width: 1; stroke-dasharray: none; stroke-linecap: butt; stroke-linejoin: miter; stroke-miterlimit: 10; fill: rgb(0,0,0); fill-rule: nonzero; opacity: 1;" transform=" matrix(1 0 0 1 0 0) " stroke-linecap="round" />
	<path d="M 70.964 38.613 c -1.051 0 -2.101 -0.4 -2.9 -1.2 L 52.589 21.938 c 0 0 0 0 -0.001 0 c -1.598 -1.599 -1.598 -4.201 0 -5.799 l 2.932 -2.931 c 1.6 -1.6 4.201 -1.598 5.801 0 l 15.475 15.475 c 1.599 1.599 1.599 4.2 0.001 5.799 l -2.933 2.932 C 73.063 38.213 72.014 38.613 70.964 38.613 z M 55.417 19.11 l 15.475 15.475 c 0.034 0.034 0.111 0.033 0.144 0 l 2.932 -2.932 c 0.039 -0.039 0.039 -0.104 0 -0.143 L 58.492 16.036 c -0.041 -0.04 -0.104 -0.041 -0.145 0 l -2.931 2.93 C 55.378 19.006 55.378 19.071 55.417 19.11 L 55.417 19.11 z" style="stroke: none; stroke-width: 1; stroke-dasharray: none; stroke-linecap: butt; stroke-linejoin: miter; stroke-miterlimit: 10; fill: rgb(0,0,0); fill-rule: nonzero; opacity: 1;" transform=" matrix(1 0 0 1 0 0) " stroke-linecap="round" />
	<path d="M 8.773 83.229 c -0.512 0 -1.024 -0.195 -1.414 -0.586 c -0.781 -0.781 -0.781 -2.047 0 -2.828 l 4.979 -4.979 c 0.78 -0.781 2.048 -0.781 2.828 0 c 0.781 0.781 0.781 2.047 0 2.828 l -4.979 4.979 C 9.797 83.033 9.285 83.229 8.773 83.229 z" style="stroke: none; stroke-width: 1; stroke-dasharray: none; stroke-linecap: butt; stroke-linejoin: miter; stroke-miterlimit: 10; fill: rgb(0,0,0); fill-rule: nonzero; opacity: 1;" transform=" matrix(1 0 0 1 0 0) " stroke-linecap="round" />
</g>
</svg>