<svg xmlns="http://www.w3.org/2000/svg" xmlns:xlink="http://www.w3.org/1999/xlink" version="1.1" width="256" height="256" viewBox="0 0 256 256" xml:space="preserve">

<defs>
</defs>
<g style="stroke: none; stroke-width: 0; stroke-dasharray: none; stroke-linecap: butt; stroke-linejoin: miter; stroke-miterlimit: 10; fill: none; fill-rule: nonzero; opacity: 1;" transform="translate(1.4065934065934016 1.4065934065934016) scale(2.81 2.81)" >
	<path d="M 69.808 90 H 46.017 c -2.761 0 -5 -2.238 -5 -5 s 2.239 -5 5 -5 h 23.791 c 2.474 0 4.486 -2.013 4.486 -4.486 V 14.486 c 0 -2.474 -2.013 -4.486 -4.486 -4.486 H 46.017 c -2.761 0 -5 -2.239 -5 -5 s 2.239 -5 5 -5 h 23.791 c 7.987 0 14.486 6.499 14.486 14.486 v 61.027 C 84.294 83.501 77.795 90 69.808 90 z" style="stroke: none; stroke-width: 1; stroke-dasharray: none; stroke-linecap: butt; stroke-linejoin: miter; stroke-miterlimit: 10; fill: rgb(0,0,0); fill-rule: nonzero; opacity: 1;" transform=" matrix(1 0 0 1 0 0) " stroke-linecap="round" />
	<path d="M 38.955 72.776 c -1.28 0 -2.559 -0.488 -3.536 -1.465 c -1.953 -1.952 -1.953 -5.118 0 -7.07 L 54.659 45 l -19.24 -19.24 c -1.953 -1.953 -1.953 -5.119 0 -7.071 c 1.953 -1.952 5.118 -1.952 7.071 0 l 22.775 22.776 c 1.953 1.953 1.953 5.119 0 7.071 L 42.49 71.312 C 41.514 72.288 40.234 72.776 38.955 72.776 z" style="stroke: none; stroke-width: 1; stroke-dasharray: none; stroke-linecap: butt; stroke-linejoin: miter; stroke-miterlimit: 10; fill: rgb(0,0,0); fill-rule: nonzero; opacity: 1;" transform=" matrix(1 0 0 1 0 0) " stroke-linecap="round" />
	<path d="M 61.73 50 H 10.706 c -2.761 0 -5 -2.238 -5 -5 c 0 -2.761 2.239 -5 5 -5 H 61.73 c 2.762 0 5 2.239 5 5 C 66.73 47.762 64.492 50 61.73 50 z" style="stroke: none; stroke-width: 1; stroke-dasharray: none; stroke-linecap: butt; stroke-linejoin: miter; stroke-miterlimit: 10; fill: rgb(0,0,0); fill-rule: nonzero; opacity: 1;" transform=" matrix(1 0 0 1 0 0) " stroke-linecap="round" />
</g>
</svg>